<svg xmlns="http://www.w3.org/2000/svg" viewBox="0 0 640 480" width="640" height="480">
<g>
    <g id="p0">
        <polygon points="441.000,194.000 441.000,200.000 446.000,200.000 446.000,194.000"/>
        <polygon points="447.182,194.243 444.818,199.757 451.754,202.907 454.246,197.093"/>
        <polygon points="455.089,197.626 450.911,202.374 475.618,224.707 480.382,219.293"/>
        <polygon points="481.526,221.245 474.474,222.755 478.067,236.629 483.933,235.371"/>
        <polygon points="483.996,236.158 478.004,235.842 478.003,254.895 481.997,255.105"/>
        <circle cx="441" cy="197" r="3.000"/>
        <circle cx="446" cy="197" r="3.000"/>
        <circle cx="453" cy="200" r="3.162"/>
        <circle cx="478" cy="222" r="3.606"/>
        <circle cx="481" cy="236" r="3.000"/>
        <circle cx="480" cy="255" r="2.000"/>
    </g>
    <g id="p1">
        <polygon points="441.824,199.885 440.176,194.115 433.386,196.850 434.614,201.150"/>
        <circle cx="441" cy="197" r="3.000"/>
        <circle cx="434" cy="199" r="2.236"/>
    </g>
    <g id="p2">
        <polygon points="431.000,197.000 431.000,201.000 434.000,201.236 434.000,196.764"/>
        <circle cx="431" cy="199" r="2.000"/>
        <circle cx="434" cy="199" r="2.236"/>
    </g>
    <g id="p3">
        <polygon points="432.789,199.894 429.211,198.106 429.106,200.553 430.894,201.447"/>
        <circle cx="431" cy="199" r="2.000"/>
        <circle cx="430" cy="201" r="1.000"/>
    </g>
    <g id="p4">
        <polygon points="436.236,199.000 431.764,199.000 433.000,202.000 435.000,202.000"/>
        <polygon points="434.000,203.000 434.000,201.000 431.000,201.000 431.000,203.000"/>
        <circle cx="434" cy="199" r="2.236"/>
        <circle cx="434" cy="202" r="1.000"/>
        <circle cx="431" cy="202" r="1.000"/>
    </g>
    <g id="p5">
        <polygon points="430.414,201.000 427.586,201.000 428.000,202.000 430.000,202.000"/>
        <circle cx="429" cy="201" r="1.414"/>
        <circle cx="429" cy="202" r="1.000"/>
    </g>
    <g id="p6">
        <polygon points="430.000,202.000 428.000,200.000 426.586,200.586 429.414,203.414"/>
        <circle cx="429" cy="201" r="1.414"/>
        <circle cx="428" cy="202" r="2.000"/>
    </g>
    <g id="p7">
        <polygon points="430.707,200.293 429.293,201.707 430.293,202.707 431.707,201.293"/>
        <circle cx="430" cy="201" r="1.000"/>
        <circle cx="431" cy="202" r="1.000"/>
    </g>
    <g id="p8">
        <polygon points="426.000,199.172 426.000,204.828 428.000,204.000 428.000,200.000"/>
        <circle cx="426" cy="202" r="2.828"/>
        <circle cx="428" cy="202" r="2.000"/>
    </g>
    <g id="p9">
        <polygon points="427.697,204.263 424.303,199.737 416.303,205.737 419.697,210.263"/>
        <polygon points="418.000,210.828 418.000,205.172 416.000,205.764 416.000,210.236"/>
        <polygon points="417.639,209.522 414.361,206.478 401.361,220.478 404.639,223.522"/>
        <polygon points="404.949,223.096 401.051,220.904 391.535,236.613 396.465,239.387"/>
        <polygon points="396.640,239.015 391.360,236.985 386.049,249.865 391.951,252.135"/>
        <polygon points="390.627,253.712 387.373,248.288 381.377,249.628 386.623,258.372"/>
        <circle cx="426" cy="202" r="2.828"/>
        <circle cx="418" cy="208" r="2.828"/>
        <circle cx="416" cy="208" r="2.236"/>
        <circle cx="403" cy="222" r="2.236"/>
        <circle cx="394" cy="238" r="2.828"/>
        <circle cx="389" cy="251" r="3.162"/>
        <circle cx="384" cy="254" r="5.099"/>
    </g>
    <g id="p10">
        <polygon points="428.000,200.000 428.000,204.000 431.000,203.000 431.000,201.000"/>
        <circle cx="428" cy="202" r="2.000"/>
        <circle cx="431" cy="202" r="1.000"/>
    </g>
    <g id="p11">
        <polygon points="432.000,202.000 430.000,202.000 430.000,203.000 432.000,203.000"/>
        <circle cx="431" cy="202" r="1.000"/>
        <circle cx="431" cy="203" r="1.000"/>
    </g>
    <g id="p12">
        <polygon points="255.512,230.744 242.488,237.256 244.789,243.606 259.211,236.394"/>
        <circle cx="249" cy="234" r="7.280"/>
        <circle cx="252" cy="240" r="8.062"/>
    </g>
    <g id="p13">
        <polygon points="348.000,233.000 348.000,239.000 361.000,240.000 361.000,232.000"/>
        <polygon points="362.149,232.169 359.851,239.831 369.964,242.453 372.036,235.547"/>
        <polygon points="373.346,236.262 368.654,241.738 375.317,248.130 380.683,241.870"/>
        <polygon points="381.790,243.376 374.210,246.624 377.686,253.420 384.314,250.580"/>
        <polygon points="383.000,249.000 379.000,255.000 381.172,258.243 386.828,249.757"/>
        <circle cx="348" cy="236" r="3.000"/>
        <circle cx="361" cy="236" r="4.000"/>
        <circle cx="371" cy="239" r="3.606"/>
        <circle cx="378" cy="245" r="4.123"/>
        <circle cx="381" cy="252" r="3.606"/>
        <circle cx="384" cy="254" r="5.099"/>
    </g>
    <g id="p14">
        <polygon points="349.114,238.785 346.886,233.215 336.661,236.652 339.339,243.348"/>
        <polygon points="340.550,242.550 335.450,237.450 330.450,242.450 335.550,247.550"/>
        <polygon points="336.421,246.140 329.579,243.860 327.088,249.696 334.912,252.304"/>
        <polygon points="333.915,253.915 328.085,248.085 326.586,252.586 329.414,255.414"/>
        <circle cx="348" cy="236" r="3.000"/>
        <circle cx="338" cy="240" r="3.606"/>
        <circle cx="333" cy="245" r="3.606"/>
        <circle cx="331" cy="251" r="4.123"/>
        <circle cx="328" cy="254" r="2.000"/>
    </g>
    <g id="p15">
        <polygon points="252.000,231.938 252.000,248.062 256.000,244.123 256.000,235.877"/>
        <polygon points="258.474,236.702 253.526,243.298 259.400,243.800 260.600,242.200"/>
        <polygon points="261.000,243.000 259.000,243.000 259.000,245.000 261.000,245.000"/>
        <circle cx="252" cy="240" r="8.062"/>
        <circle cx="256" cy="240" r="4.123"/>
        <circle cx="260" cy="243" r="1.000"/>
        <circle cx="260" cy="245" r="1.000"/>
    </g>
    <g id="p16">
        <polygon points="259.953,238.675 244.047,241.325 247.000,247.000 259.000,245.000"/>
        <circle cx="252" cy="240" r="8.062"/>
        <circle cx="253" cy="246" r="6.083"/>
    </g>
    <g id="p17">
        <polygon points="186.000,244.000 184.000,244.000 184.000,247.000 186.000,247.000"/>
        <circle cx="185" cy="244" r="1.000"/>
        <circle cx="185" cy="247" r="1.000"/>
    </g>
    <g id="p18">
        <polygon points="186.000,244.000 184.000,244.000 184.000,247.000 186.000,247.000"/>
        <circle cx="185" cy="244" r="1.000"/>
        <circle cx="185" cy="247" r="1.000"/>
    </g>
    <g id="p19">
        <polygon points="260.928,244.629 259.072,245.371 263.072,255.371 264.928,254.629"/>
        <circle cx="260" cy="245" r="1.000"/>
        <circle cx="264" cy="255" r="1.000"/>
    </g>
    <g id="p20">
        <polygon points="260.447,245.894 259.553,244.106 257.368,244.735 258.632,247.265"/>
        <polygon points="258.000,247.414 258.000,244.586 253.000,239.917 253.000,252.083"/>
        <circle cx="260" cy="245" r="1.000"/>
        <circle cx="258" cy="246" r="1.414"/>
        <circle cx="253" cy="246" r="6.083"/>
    </g>
    <g id="p21">
        <polygon points="258.938,244.680 247.062,247.320 251.308,265.265 262.692,262.735"/>
        <polygon points="262.657,262.586 251.343,265.414 253.053,269.237 262.947,266.763"/>
        <polygon points="262.947,266.763 253.053,269.237 257.628,272.343 260.372,271.657"/>
        <circle cx="253" cy="246" r="6.083"/>
        <circle cx="257" cy="264" r="5.831"/>
        <circle cx="258" cy="268" r="5.099"/>
        <circle cx="259" cy="272" r="1.414"/>
    </g>
    <g id="p22">
        <polygon points="185.265,246.368 182.735,247.632 183.211,249.894 186.789,248.106"/>
        <circle cx="184" cy="247" r="1.414"/>
        <circle cx="185" cy="249" r="2.000"/>
    </g>
    <g id="p23">
        <polygon points="191.000,247.000 191.000,249.000 194.000,249.000 194.000,247.000"/>
        <polygon points="194.894,247.553 193.106,248.447 192.205,253.897 199.795,250.103"/>
        <circle cx="191" cy="248" r="1.000"/>
        <circle cx="194" cy="248" r="1.000"/>
        <circle cx="196" cy="252" r="4.243"/>
    </g>
    <g id="p24">
        <polygon points="172.000,246.172 172.000,251.828 176.000,251.236 176.000,246.764"/>
        <circle cx="172" cy="249" r="2.828"/>
        <circle cx="176" cy="249" r="2.236"/>
    </g>
    <g id="p25">
        <polygon points="173.374,251.472 170.626,246.528 161.626,251.528 164.374,256.472"/>
        <polygon points="165.000,256.000 161.000,252.000 149.450,262.450 154.550,267.550"/>
        <polygon points="155.000,267.000 149.000,263.000 143.000,272.000 149.000,276.000"/>
        <polygon points="149.388,275.232 142.612,272.768 137.797,283.472 146.203,286.528"/>
        <polygon points="146.459,285.343 137.541,284.657 136.015,297.617 145.985,298.383"/>
        <polygon points="145.472,295.764 136.528,300.236 137.343,304.828 148.657,299.172"/>
        <polygon points="148.529,298.929 137.471,305.071 143.293,313.615 152.707,308.385"/>
        <polygon points="151.808,307.192 144.192,314.808 152.000,323.000 160.000,315.000"/>
        <polygon points="160.000,315.000 152.000,323.000 155.000,324.000 161.000,318.000"/>
        <circle cx="172" cy="249" r="2.828"/>
        <circle cx="163" cy="254" r="2.828"/>
        <circle cx="152" cy="265" r="3.606"/>
        <circle cx="146" cy="274" r="3.606"/>
        <circle cx="142" cy="285" r="4.472"/>
        <circle cx="141" cy="298" r="5.000"/>
        <circle cx="143" cy="302" r="6.325"/>
        <circle cx="148" cy="311" r="5.385"/>
        <circle cx="156" cy="319" r="5.657"/>
        <circle cx="158" cy="321" r="4.243"/>
    </g>
    <g id="p26">
        <polygon points="182.000,248.000 182.000,250.000 185.000,251.000 185.000,247.000"/>
        <circle cx="182" cy="249" r="1.000"/>
        <circle cx="185" cy="249" r="2.000"/>
    </g>
    <g id="p27">
        <polygon points="182.894,249.447 181.106,248.553 180.106,250.553 181.894,251.447"/>
        <circle cx="182" cy="249" r="1.000"/>
        <circle cx="181" cy="251" r="1.000"/>
    </g>
    <g id="p28">
        <polygon points="185.485,247.060 184.515,250.940 188.757,250.970 189.243,249.030"/>
        <polygon points="189.275,249.038 188.725,250.962 194.834,256.079 197.166,247.921"/>
        <circle cx="185" cy="249" r="2.000"/>
        <circle cx="189" cy="250" r="1.000"/>
        <circle cx="196" cy="252" r="4.243"/>
    </g>
    <g id="p29">
        <polygon points="199.530,249.647 192.470,254.353 193.148,258.234 202.852,251.766"/>
        <polygon points="203.831,255.000 192.169,255.000 193.000,267.000 203.000,267.000"/>
        <polygon points="202.789,268.437 193.211,265.563 184.211,295.563 193.789,298.437"/>
        <polygon points="193.682,298.756 184.318,295.244 183.191,303.947 188.809,306.053"/>
        <polygon points="188.942,305.588 183.058,304.412 181.058,314.412 186.942,315.588"/>
        <polygon points="186.121,317.121 181.879,312.879 179.879,314.879 184.121,319.121"/>
        <polygon points="185.000,317.000 179.000,317.000 179.000,320.000 185.000,320.000"/>
        <polygon points="182.949,322.846 181.051,317.154 178.293,318.879 179.707,323.121"/>
        <circle cx="196" cy="252" r="4.243"/>
        <circle cx="198" cy="255" r="5.831"/>
        <circle cx="198" cy="267" r="5.000"/>
        <circle cx="189" cy="297" r="5.000"/>
        <circle cx="186" cy="305" r="3.000"/>
        <circle cx="184" cy="315" r="3.000"/>
        <circle cx="182" cy="317" r="3.000"/>
        <circle cx="182" cy="320" r="3.000"/>
        <circle cx="179" cy="321" r="2.236"/>
    </g>
    <g id="p30">
        <polygon points="389.099,254.000 378.901,254.000 380.000,262.000 388.000,262.000"/>
        <polygon points="387.795,263.265 380.205,260.735 380.103,267.368 383.897,268.632"/>
        <circle cx="384" cy="254" r="5.099"/>
        <circle cx="384" cy="262" r="4.000"/>
        <circle cx="382" cy="268" r="2.000"/>
    </g>
    <g id="p31">
        <polygon points="284.000,253.000 284.000,259.000 295.000,260.000 295.000,252.000"/>
        <polygon points="296.404,252.255 293.596,259.745 301.510,262.973 304.490,255.027"/>
        <polygon points="306.000,256.000 300.000,262.000 308.085,269.915 313.915,264.085"/>
        <polygon points="314.688,265.156 307.312,268.844 309.775,272.612 316.225,269.388"/>
        <polygon points="316.510,270.174 309.490,271.826 314.080,288.687 319.920,287.313"/>
        <circle cx="284" cy="256" r="3.000"/>
        <circle cx="295" cy="256" r="4.000"/>
        <circle cx="303" cy="259" r="4.243"/>
        <circle cx="311" cy="267" r="4.123"/>
        <circle cx="313" cy="271" r="3.606"/>
        <circle cx="317" cy="288" r="3.000"/>
    </g>
    <g id="p32">
        <polygon points="285.053,258.809 282.947,253.191 274.890,256.039 277.110,261.961"/>
        <polygon points="278.236,261.236 273.764,256.764 265.450,264.450 270.550,269.550"/>
        <polygon points="271.348,268.339 264.652,265.661 261.266,270.106 270.734,273.894"/>
        <polygon points="267.237,276.947 264.763,267.053 261.657,271.628 262.343,274.372"/>
        <circle cx="284" cy="256" r="3.000"/>
        <circle cx="276" cy="259" r="3.162"/>
        <circle cx="268" cy="267" r="3.606"/>
        <circle cx="266" cy="272" r="5.099"/>
        <circle cx="262" cy="273" r="1.414"/>
    </g>
    <g id="p33">
        <polygon points="259.447,270.658 258.553,273.342 261.553,274.342 262.447,271.658"/>
        <circle cx="259" cy="272" r="1.414"/>
        <circle cx="262" cy="273" r="1.414"/>
    </g>
    <g id="p34">
        <polygon points="260.265,271.368 257.735,272.632 259.106,274.447 260.894,273.553"/>
        <circle cx="259" cy="272" r="1.414"/>
        <circle cx="260" cy="274" r="1.000"/>
    </g>
    <g id="p35">
        <polygon points="261.894,272.553 260.106,273.447 260.735,275.632 263.265,274.368"/>
        <circle cx="261" cy="273" r="1.000"/>
        <circle cx="262" cy="275" r="1.414"/>
    </g>
    <g id="p36">
        <polygon points="260.447,273.106 259.553,274.894 261.368,276.265 262.632,273.735"/>
        <circle cx="260" cy="274" r="1.000"/>
        <circle cx="262" cy="275" r="1.414"/>
    </g>
    <g id="p37">
        <polygon points="263.387,274.723 260.613,275.277 256.798,281.240 269.202,278.760"/>
        <polygon points="269.308,279.549 256.692,280.451 258.015,294.427 269.985,293.573"/>
        <polygon points="268.243,298.243 259.757,289.757 258.257,290.257 267.743,299.743"/>
        <polygon points="267.743,299.743 258.257,290.257 256.000,298.000 260.000,302.000"/>
        <polygon points="260.438,301.434 255.562,298.566 245.274,315.397 250.726,318.603"/>
        <polygon points="250.163,319.307 245.837,314.693 214.066,344.937 217.934,349.063"/>
        <polygon points="217.529,349.379 214.471,344.621 200.791,354.119 203.209,357.881"/>
        <polygon points="202.752,358.106 201.248,353.894 186.991,358.175 189.009,363.825"/>
        <polygon points="187.770,363.991 188.230,358.009 175.413,354.631 174.587,365.369"/>
        <polygon points="171.769,364.308 178.231,355.692 174.499,352.335 167.501,361.665"/>
        <polygon points="165.248,357.959 176.752,356.041 175.312,350.115 164.688,351.885"/>
        <circle cx="262" cy="275" r="1.414"/>
        <circle cx="263" cy="280" r="6.325"/>
        <circle cx="264" cy="294" r="6.000"/>
        <circle cx="263" cy="295" r="6.708"/>
        <circle cx="258" cy="300" r="2.828"/>
        <circle cx="248" cy="317" r="3.162"/>
        <circle cx="216" cy="347" r="2.828"/>
        <circle cx="202" cy="356" r="2.236"/>
        <circle cx="188" cy="361" r="3.000"/>
        <circle cx="175" cy="360" r="5.385"/>
        <circle cx="171" cy="357" r="5.831"/>
        <circle cx="170" cy="351" r="5.385"/>
    </g>
    <g id="p38">
        <polygon points="178.000,318.000 176.000,318.000 176.000,319.000 178.000,319.000"/>
        <circle cx="177" cy="318" r="1.000"/>
        <circle cx="177" cy="319" r="1.000"/>
    </g>
    <g id="p39">
        <polygon points="177.707,318.293 176.293,319.707 177.419,322.581 180.581,319.419"/>
        <circle cx="177" cy="319" r="1.000"/>
        <circle cx="179" cy="321" r="2.236"/>
    </g>
    <g id="p40">
        <polygon points="177.894,319.447 176.106,318.553 175.106,320.553 176.894,321.447"/>
        <circle cx="177" cy="319" r="1.000"/>
        <circle cx="176" cy="321" r="1.000"/>
    </g>
    <g id="p41">
        <polygon points="159.342,316.975 156.658,325.025 160.368,323.897 161.632,320.103"/>
        <polygon points="161.000,320.000 161.000,324.000 164.000,324.236 164.000,319.764"/>
        <polygon points="165.789,320.658 162.211,323.342 164.737,327.697 169.263,324.303"/>
        <polygon points="167.000,323.172 167.000,328.828 169.000,327.414 169.000,324.586"/>
        <circle cx="158" cy="321" r="4.243"/>
        <circle cx="161" cy="322" r="2.000"/>
        <circle cx="164" cy="322" r="2.236"/>
        <circle cx="167" cy="326" r="2.828"/>
        <circle cx="169" cy="326" r="1.414"/>
    </g>
    <g id="p42">
        <polygon points="162.160,320.168 153.840,321.832 157.613,326.277 160.387,325.723"/>
        <polygon points="159.849,324.869 158.151,327.131 162.151,330.131 163.849,327.869"/>
        <circle cx="158" cy="321" r="4.243"/>
        <circle cx="159" cy="326" r="1.414"/>
        <circle cx="163" cy="329" r="1.414"/>
    </g>
    <g id="p43">
        <polygon points="176.000,320.000 176.000,322.000 179.000,323.236 179.000,318.764"/>
        <circle cx="176" cy="321" r="1.000"/>
        <circle cx="179" cy="321" r="2.236"/>
    </g>
    <g id="p44">
        <polygon points="176.949,321.316 175.051,320.684 174.051,323.684 175.949,324.316"/>
        <polygon points="175.316,323.051 174.684,324.949 177.106,327.683 178.894,322.317"/>
        <circle cx="176" cy="321" r="1.000"/>
        <circle cx="175" cy="324" r="1.000"/>
        <circle cx="178" cy="325" r="2.828"/>
    </g>
    <g id="p45">
        <polygon points="181.169,321.542 176.831,320.458 175.256,324.314 180.744,325.686"/>
        <circle cx="179" cy="321" r="2.236"/>
        <circle cx="178" cy="325" r="2.828"/>
    </g>
    <g id="p46">
        <polygon points="180.626,326.050 175.374,323.950 171.848,328.339 180.152,331.661"/>
        <polygon points="176.000,334.472 176.000,325.528 174.000,326.000 174.000,334.000"/>
        <circle cx="178" cy="325" r="2.828"/>
        <circle cx="176" cy="330" r="4.472"/>
        <circle cx="174" cy="330" r="4.000"/>
    </g>
    <g id="p47">
        <polygon points="169.000,324.586 169.000,327.414 171.000,327.000 171.000,325.000"/>
        <polygon points="171.894,325.553 170.106,326.447 170.735,328.632 173.265,327.368"/>
        <circle cx="169" cy="326" r="1.414"/>
        <circle cx="171" cy="326" r="1.000"/>
        <circle cx="172" cy="328" r="1.414"/>
    </g>
    <g id="p48">
        <polygon points="170.414,326.000 167.586,326.000 168.000,328.000 170.000,328.000"/>
        <polygon points="169.000,327.000 169.000,329.000 172.000,329.414 172.000,326.586"/>
        <circle cx="169" cy="326" r="1.414"/>
        <circle cx="169" cy="328" r="1.000"/>
        <circle cx="172" cy="328" r="1.414"/>
    </g>
    <g id="p49">
        <polygon points="173.000,327.000 171.000,329.000 171.172,332.828 176.828,327.172"/>
        <circle cx="172" cy="328" r="1.414"/>
        <circle cx="174" cy="330" r="4.000"/>
    </g>
    <g id="p50">
        <polygon points="178.000,330.000 170.000,330.000 170.000,333.000 178.000,333.000"/>
        <polygon points="178.000,333.000 170.000,333.000 173.000,336.000 175.000,336.000"/>
        <circle cx="174" cy="330" r="4.000"/>
        <circle cx="174" cy="333" r="4.000"/>
        <circle cx="174" cy="336" r="1.000"/>
    </g>
    <g id="p51">
        <polygon points="174.414,336.000 171.586,336.000 171.586,338.000 174.414,338.000"/>
        <circle cx="173" cy="336" r="1.414"/>
        <circle cx="173" cy="338" r="1.414"/>
    </g>
    <g id="p52">
        <polygon points="174.894,335.553 173.106,336.447 173.735,338.632 176.265,337.368"/>
        <polygon points="175.000,339.414 175.000,336.586 173.000,336.586 173.000,339.414"/>
        <circle cx="174" cy="336" r="1.000"/>
        <circle cx="175" cy="338" r="1.414"/>
        <circle cx="173" cy="338" r="1.414"/>
    </g>
    <g id="p53">
        <polygon points="174.236,338.000 169.764,338.000 169.000,340.000 175.000,340.000"/>
        <circle cx="172" cy="338" r="2.236"/>
        <circle cx="172" cy="340" r="3.000"/>
    </g>
    <g id="p54">
        <polygon points="170.000,336.394 170.000,343.606 172.000,343.000 172.000,337.000"/>
        <circle cx="170" cy="340" r="3.606"/>
        <circle cx="172" cy="340" r="3.000"/>
    </g>
    <g id="p55">
        <polygon points="173.225,341.612 166.775,338.388 165.172,342.586 170.828,345.414"/>
        <polygon points="171.162,344.000 164.838,344.000 163.000,351.000 173.000,351.000"/>
        <polygon points="168.000,346.000 168.000,356.000 170.000,356.385 170.000,345.615"/>
        <circle cx="170" cy="340" r="3.606"/>
        <circle cx="168" cy="344" r="3.162"/>
        <circle cx="168" cy="351" r="5.000"/>
        <circle cx="170" cy="351" r="5.385"/>
    </g>
    <g id="p56">
        <polygon points="174.121,337.879 169.879,342.121 172.586,343.414 175.414,340.586"/>
        <polygon points="176.000,342.000 172.000,342.000 172.586,347.000 175.414,347.000"/>
        <polygon points="175.000,348.000 173.000,346.000 166.192,347.192 173.808,354.808"/>
        <circle cx="172" cy="340" r="3.000"/>
        <circle cx="174" cy="342" r="2.000"/>
        <circle cx="174" cy="347" r="1.414"/>
        <circle cx="170" cy="351" r="5.385"/>
    </g>
    <g id="p57">
        <polygon points="170.000,345.615 170.000,356.385 171.000,356.000 171.000,346.000"/>
        <circle cx="170" cy="351" r="5.385"/>
        <circle cx="171" cy="351" r="5.000"/>
    </g>
</g>
</svg>
