<?xml version="1.0" encoding="UTF-8" standalone="no"?>
<svg
   xmlns:dc="http://purl.org/dc/elements/1.1/"
   xmlns:cc="http://creativecommons.org/ns#"
   xmlns:rdf="http://www.w3.org/1999/02/22-rdf-syntax-ns#"
   xmlns:svg="http://www.w3.org/2000/svg"
   xmlns="http://www.w3.org/2000/svg"
   xmlns:sodipodi="http://sodipodi.sourceforge.net/DTD/sodipodi-0.dtd"
   xmlns:inkscape="http://www.inkscape.org/namespaces/inkscape"
   viewBox="0 0 116 54"
   width="116"
   height="54"
   version="1.1"
   id="svg1176"
   sodipodi:docname="theory_postprocess_without_simplification.svg"
   inkscape:version="0.92.4 (5da689c313, 2019-01-14)">
  <metadata
     id="metadata1180">
    <rdf:RDF>
      <cc:Work
         rdf:about="">
        <dc:format>image/svg+xml</dc:format>
        <dc:type
           rdf:resource="http://purl.org/dc/dcmitype/StillImage" />
        <dc:title></dc:title>
      </cc:Work>
    </rdf:RDF>
  </metadata>
  <sodipodi:namedview
     pagecolor="#ffffff"
     bordercolor="#666666"
     borderopacity="1"
     objecttolerance="10"
     gridtolerance="10"
     guidetolerance="10"
     inkscape:pageopacity="0"
     inkscape:pageshadow="2"
     inkscape:window-width="2518"
     inkscape:window-height="1376"
     id="namedview1178"
     showgrid="false"
     inkscape:zoom="9.0509668"
     inkscape:cx="50.193537"
     inkscape:cy="5.5699198"
     inkscape:window-x="42"
     inkscape:window-y="27"
     inkscape:window-maximized="1"
     inkscape:current-layer="svg1176" />
  <defs
     id="defs5">
    <marker
       id="dot"
       viewBox="0 0 10 10"
       refX="5"
       refY="5"
       markerWidth="5"
       markerHeight="5">
      <circle
         cx="5"
         cy="5"
         r="5"
         id="circle2"
         style="fill:#ffffff;stroke:#000000" />
    </marker>
  </defs>
  <style
     id="style7">
#c {
    pointer-events: none;
    fill: none;
    stroke: white;
    stroke-width: 0.5;
    marker-start: url(#dot);
    marker-mid: url(#dot);
    marker-end: url(#dot);
}
</style>
  <g
     id="g1821"
     transform="translate(0,-241)">
    <polygon
       transform="translate(-185,51)"
       id="polygon353"
       points="189,235 189,243 190,243 190,235 " />
    <polygon
       transform="translate(-185,51)"
       id="polygon355"
       points="190,235 190,243 191,243 191,235 " />
    <polygon
       transform="translate(-185,51)"
       id="polygon357"
       points="191,235 191,243 192,243 192,235 " />
    <polygon
       transform="translate(-185,51)"
       id="polygon359"
       points="192,235 192,243 193,243 193,235 " />
    <polygon
       transform="translate(-185,51)"
       id="polygon361"
       points="193,235 193,243 194,243 194,235 " />
    <polygon
       transform="translate(-185,51)"
       id="polygon363"
       points="194,235 194,243 195,243.123 195,234.877 " />
    <polygon
       transform="translate(-185,51)"
       id="polygon365"
       points="195,234.877 195,243.123 196,243.472 196,234.528 " />
    <polygon
       transform="translate(-185,51)"
       id="polygon367"
       points="196,234.528 196,243.472 197,244 197,234 " />
    <polygon
       transform="translate(-185,51)"
       id="polygon369"
       points="197,234 197,244 198,244 198,234 " />
    <polygon
       transform="translate(-185,51)"
       id="polygon371"
       points="194.464,235.464 201.536,242.536 201.828,240.828 196.172,235.172 " />
    <polygon
       transform="translate(-185,51)"
       id="polygon373"
       points="199,234 199,242 200,242 200,234 " />
    <polygon
       transform="translate(-185,51)"
       id="polygon375"
       points="200,234 200,242 201,242 201,234 " />
    <polygon
       transform="translate(-185,51)"
       id="polygon377"
       points="201,234 201,242 202,242.123 202,233.877 " />
    <polygon
       transform="translate(-185,51)"
       id="polygon379"
       points="202,233.877 202,242.123 203,242.123 203,233.877 " />
    <polygon
       transform="translate(-185,51)"
       id="polygon381"
       points="203,233.877 203,242.123 204,242 204,234 " />
    <polygon
       transform="translate(-185,51)"
       id="polygon383"
       points="204,234 204,242 205,242 205,234 " />
    <polygon
       transform="translate(-185,51)"
       id="polygon385"
       points="202.172,235.172 207.828,240.828 209.162,240.162 202.838,233.838 " />
    <polygon
       transform="translate(-185,51)"
       id="polygon387"
       points="206,232.528 206,241.472 207,242 207,232 " />
    <polygon
       transform="translate(-185,51)"
       id="polygon389"
       points="207,232 207,242 208,241.472 208,232.528 " />
    <polygon
       transform="translate(-185,51)"
       id="polygon391"
       points="203.528,237 212.472,237 212,236 204,236 " />
    <polygon
       transform="translate(-185,51)"
       id="polygon393"
       points="208,232 208,240 209,240 209,232 " />
    <polygon
       transform="translate(-185,51)"
       id="polygon395"
       points="209,232 209,240 210,240 210,232 " />
    <polygon
       transform="translate(-185,51)"
       id="polygon397"
       points="210,232 210,240 211,240.123 211,231.877 " />
    <polygon
       transform="translate(-185,51)"
       id="polygon399"
       points="211,231.877 211,240.123 212,240 212,232 " />
    <polygon
       transform="translate(-185,51)"
       id="polygon401"
       points="212,232 212,240 213,240 213,232 " />
    <polygon
       transform="translate(-185,51)"
       id="polygon403"
       points="210.172,233.172 215.828,238.828 216.828,237.828 211.172,232.172 " />
    <polygon
       transform="translate(-185,51)"
       id="polygon405"
       points="214,231 214,239 215,239.123 215,230.877 " />
    <polygon
       transform="translate(-185,51)"
       id="polygon407"
       points="215,230.877 215,239.123 216,239.123 216,230.877 " />
    <polygon
       transform="translate(-185,51)"
       id="polygon409"
       points="216,230.877 216,239.123 217,239 217,231 " />
    <polygon
       transform="translate(-185,51)"
       id="polygon411"
       points="217,231 217,239 218,239 218,231 " />
    <polygon
       transform="translate(-185,51)"
       id="polygon413"
       points="214,235 222,235 222.123,234 213.877,234 " />
    <polygon
       transform="translate(-185,51)"
       id="polygon415"
       points="218,229.877 218,238.123 219,238.472 219,229.528 " />
    <polygon
       transform="translate(-185,51)"
       id="polygon417"
       points="219,229.528 219,238.472 220,238.472 220,229.528 " />
    <polygon
       transform="translate(-185,51)"
       id="polygon419"
       points="220,229.528 220,238.472 221,238.123 221,229.877 " />
    <polygon
       transform="translate(-185,51)"
       id="polygon421"
       points="216.877,234 225.123,234 225.123,233 216.877,233 " />
    <polygon
       transform="translate(-185,51)"
       id="polygon423"
       points="221,228.877 221,237.123 222,237.472 222,228.528 " />
    <polygon
       transform="translate(-185,51)"
       id="polygon425"
       points="222,228.528 222,237.472 223,237.472 223,228.528 " />
    <polygon
       transform="translate(-185,51)"
       id="polygon427"
       points="223,228.528 223,237.472 224,237.123 224,228.877 " />
    <polygon
       transform="translate(-185,51)"
       id="polygon429"
       points="221.085,230.085 226.915,235.915 228.162,235.162 221.838,228.838 " />
    <polygon
       transform="translate(-185,51)"
       id="polygon431"
       points="225,227.528 225,236.472 226,237 226,227 " />
    <polygon
       transform="translate(-185,51)"
       id="polygon433"
       points="226,227 226,237 227,237 227,227 " />
    <polygon
       transform="translate(-185,51)"
       id="polygon435"
       points="223.464,228.464 230.536,235.536 231.162,234.162 224.838,227.838 " />
    <polygon
       transform="translate(-185,51)"
       id="polygon437"
       points="228,226.528 228,235.472 229,236 229,226 " />
    <polygon
       transform="translate(-185,51)"
       id="polygon439"
       points="229,226 229,236 230,235.472 230,226.528 " />
    <polygon
       transform="translate(-185,51)"
       id="polygon441"
       points="225.528,231 234.472,231 234,230 226,230 " />
    <polygon
       transform="translate(-185,51)"
       id="polygon443"
       points="230,226 230,234 231,234.123 231,225.877 " />
    <polygon
       transform="translate(-185,51)"
       id="polygon445"
       points="231,225.877 231,234.123 232,234.472 232,225.528 " />
    <polygon
       transform="translate(-185,51)"
       id="polygon447"
       points="232,225.528 232,234.472 233,234.123 233,225.877 " />
    <polygon
       transform="translate(-185,51)"
       id="polygon449"
       points="230.085,227.085 235.915,232.915 237.162,232.162 230.838,225.838 " />
    <polygon
       transform="translate(-185,51)"
       id="polygon451"
       points="234,224.528 234,233.472 235,233.472 235,224.528 " />
    <polygon
       transform="translate(-185,51)"
       id="polygon453"
       points="235,224.528 235,233.472 236,233.123 236,224.877 " />
    <polygon
       transform="translate(-185,51)"
       id="polygon455"
       points="233.085,226.085 238.915,231.915 240.162,231.162 233.838,224.838 " />
    <polygon
       transform="translate(-185,51)"
       id="polygon457"
       points="237,223.528 237,232.472 238,232.123 238,223.877 " />
    <polygon
       transform="translate(-185,51)"
       id="polygon459"
       points="238,223.877 238,232.123 239,232 239,224 " />
    <polygon
       transform="translate(-185,51)"
       id="polygon461"
       points="235,228 243,228 243.472,227 234.528,227 " />
    <polygon
       transform="translate(-185,51)"
       id="polygon463"
       points="239,222.528 239,231.472 240,232 240,222 " />
    <polygon
       transform="translate(-185,51)"
       id="polygon465"
       points="240,222 240,232 241,231.472 241,222.528 " />
    <polygon
       transform="translate(-185,51)"
       id="polygon467"
       points="237.838,223.838 244.162,230.162 245.162,229.162 238.838,222.838 " />
    <polygon
       transform="translate(-185,51)"
       id="polygon469"
       points="242,221.528 242,230.472 243,231 243,221 " />
    <polygon
       transform="translate(-185,51)"
       id="polygon471"
       points="243,221 243,231 244,231 244,221 " />
    <polygon
       transform="translate(-185,51)"
       id="polygon473"
       points="239,226 249,226 248,225 240,225 " />
    <polygon
       transform="translate(-185,51)"
       id="polygon475"
       points="244,221 244,229 245,229 245,221 " />
    <polygon
       transform="translate(-185,51)"
       id="polygon477"
       points="245,221 245,229 246,229.123 246,220.877 " />
    <polygon
       transform="translate(-185,51)"
       id="polygon479"
       points="243.085,222.085 248.915,227.915 249.55,226.55 244.45,221.45 " />
    <polygon
       transform="translate(-185,51)"
       id="polygon481"
       points="247,220.394 247,227.606 248,228.243 248,219.757 " />
    <polygon
       transform="translate(-185,51)"
       id="polygon483"
       points="248,219.757 248,228.243 249,228.123 249,219.877 " />
    <polygon
       transform="translate(-185,51)"
       id="polygon485"
       points="249,219.877 249,228.123 250,228 250,220 " />
    <polygon
       transform="translate(-185,51)"
       id="polygon487"
       points="246,224 254,224 254,223 246,223 " />
    <polygon
       transform="translate(-185,51)"
       id="polygon489"
       points="250,219 250,227 251,227.123 251,218.877 " />
    <polygon
       transform="translate(-185,51)"
       id="polygon491"
       points="251,218.877 251,227.123 252,227.472 252,218.528 " />
    <polygon
       transform="translate(-185,51)"
       id="polygon493"
       points="248.838,219.838 255.162,226.162 256,225 250,219 " />
    <polygon
       transform="translate(-185,51)"
       id="polygon495"
       points="253,217.757 253,226.243 254,226.472 254,217.528 " />
    <polygon
       transform="translate(-185,51)"
       id="polygon497"
       points="250.838,218.838 257.162,225.162 258.162,224.162 251.838,217.838 " />
    <polygon
       transform="translate(-185,51)"
       id="polygon499"
       points="251.838,217.838 258.162,224.162 258.828,222.828 253.172,217.172 " />
    <polygon
       transform="translate(-185,51)"
       id="polygon501"
       points="256,216 256,224 257,224 257,216 " />
    <polygon
       transform="translate(-185,51)"
       id="polygon503"
       points="257,216 257,224 258,224.123 258,215.877 " />
    <polygon
       transform="translate(-185,51)"
       id="polygon505"
       points="258,215.877 258,224.123 259,224 259,216 " />
    <polygon
       transform="translate(-185,51)"
       id="polygon507"
       points="256.172,217.172 261.828,222.828 263,222 257,216 " />
    <polygon
       transform="translate(-185,51)"
       id="polygon509"
       points="260,214.757 260,223.243 261,223.472 261,214.528 " />
    <polygon
       transform="translate(-185,51)"
       id="polygon511"
       points="261,214.528 261,223.472 262,223.123 262,214.877 " />
    <polygon
       transform="translate(-185,51)"
       id="polygon513"
       points="259.085,216.085 264.915,221.915 266.536,221.536 259.464,214.464 " />
    <polygon
       transform="translate(-185,51)"
       id="polygon515"
       points="263,213 263,223 264,223 264,213 " />
    <polygon
       transform="translate(-185,51)"
       id="polygon517"
       points="259,218 269,218 268.472,217 259.528,217 " />
    <polygon
       transform="translate(-185,51)"
       id="polygon519"
       points="264,212.528 264,221.472 265,222 265,212 " />
    <polygon
       transform="translate(-185,51)"
       id="polygon521"
       points="265,212 265,222 266,221.472 266,212.528 " />
    <polygon
       transform="translate(-185,51)"
       id="polygon523"
       points="261.528,217 270.472,217 270.123,216 261.877,216 " />
    <polygon
       transform="translate(-185,51)"
       id="polygon525"
       points="266,211.877 266,220.123 267,220.472 267,211.528 " />
    <polygon
       transform="translate(-185,51)"
       id="polygon527"
       points="267,211.528 267,220.472 268,220.472 268,211.528 " />
    <polygon
       transform="translate(-185,51)"
       id="polygon529"
       points="264.838,212.838 271.162,219.162 272.162,218.162 265.838,211.838 " />
    <polygon
       transform="translate(-185,51)"
       id="polygon531"
       points="269,210.528 269,219.472 270,219.472 270,210.528 " />
    <polygon
       transform="translate(-185,51)"
       id="polygon533"
       points="266.838,211.838 273.162,218.162 274.536,217.536 267.464,210.464 " />
    <polygon
       transform="translate(-185,51)"
       id="polygon535"
       points="267.464,210.464 274.536,217.536 275.536,216.536 268.464,209.464 " />
    <polygon
       transform="translate(-185,51)"
       id="polygon537"
       points="272,208 272,218 273,217.472 273,208.528 " />
    <polygon
       transform="translate(-185,51)"
       id="polygon539"
       points="268.528,213 277.472,213 277.123,212 268.877,212 " />
    <polygon
       transform="translate(-185,51)"
       id="polygon541"
       points="273,207.877 273,216.123 274,216.472 274,207.528 " />
    <polygon
       transform="translate(-185,51)"
       id="polygon543"
       points="274,207.528 274,216.472 275,216.472 275,207.528 " />
    <polygon
       transform="translate(-185,51)"
       id="polygon545"
       points="271.838,208.838 278.162,215.162 279.536,214.536 272.464,207.464 " />
    <polygon
       transform="translate(-185,51)"
       id="polygon547"
       points="272.464,207.464 279.536,214.536 280.162,213.162 273.838,206.838 " />
    <polygon
       transform="translate(-185,51)"
       id="polygon549"
       points="273.838,206.838 280.162,213.162 281,212 275,206 " />
    <polygon
       transform="translate(-185,51)"
       id="polygon551"
       points="278,204.757 278,213.243 279,213.472 279,204.528 " />
    <polygon
       transform="translate(-185,51)"
       id="polygon553"
       points="279,204.528 279,213.472 280,213.123 280,204.877 " />
    <polygon
       transform="translate(-185,51)"
       id="polygon555"
       points="275.877,209 284.123,209 285,208 275,208 " />
    <polygon
       transform="translate(-185,51)"
       id="polygon557"
       points="280,203 280,213 281,213 281,203 " />
    <polygon
       transform="translate(-185,51)"
       id="polygon559"
       points="276,208 286,208 285.472,207 276.528,207 " />
    <polygon
       transform="translate(-185,51)"
       id="polygon561"
       points="281,202.528 281,211.472 282,212 282,202 " />
    <polygon
       transform="translate(-185,51)"
       id="polygon563"
       points="282,202 282,212 283,211.472 283,202.528 " />
    <polygon
       transform="translate(-185,51)"
       id="polygon565"
       points="278.528,207 287.472,207 288,206 278,206 " />
    <polygon
       transform="translate(-185,51)"
       id="polygon567"
       points="283,201 283,211 284,211 284,201 " />
    <polygon
       transform="translate(-185,51)"
       id="polygon569"
       points="279,206 289,206 288.472,205 279.528,205 " />
    <polygon
       transform="translate(-185,51)"
       id="polygon571"
       points="284,200.528 284,209.472 285,210 285,200 " />
    <polygon
       transform="translate(-185,51)"
       id="polygon573"
       points="281.464,201.464 288.536,208.536 289.536,207.536 282.464,200.464 " />
    <polygon
       transform="translate(-185,51)"
       id="polygon575"
       points="282.464,200.464 289.536,207.536 290.536,206.536 283.464,199.464 " />
    <polygon
       transform="translate(-185,51)"
       id="polygon577"
       points="283.464,199.464 290.536,206.536 291.536,205.536 284.464,198.464 " />
    <polygon
       transform="translate(-185,51)"
       id="polygon579"
       points="284.464,198.464 291.536,205.536 292.536,204.536 285.464,197.464 " />
    <polygon
       transform="translate(-185,51)"
       id="polygon581"
       points="285.464,197.464 292.536,204.536 293.536,203.536 286.464,196.464 " />
    <polygon
       transform="translate(-185,51)"
       id="polygon583"
       points="286.464,196.464 293.536,203.536 294.808,202.808 287.192,195.192 " />
    <polygon
       transform="translate(-185,51)"
       id="polygon585"
       points="287.192,195.192 294.808,202.808 295.536,201.536 288.464,194.464 " />
    <polygon
       transform="translate(-185,51)"
       id="polygon587"
       points="292,193 292,203 293,203 293,193 " />
    <polygon
       transform="translate(-185,51)"
       id="polygon589"
       points="288,198 298,198 298,197 288,197 " />
    <polygon
       transform="translate(-185,51)"
       id="polygon591"
       points="293,192 293,202 294,202 294,192 " />
    <polygon
       transform="translate(-185,51)"
       id="polygon593"
       points="289,197 299,197 299,196 289,196 " />
    <polygon
       transform="translate(-185,51)"
       id="polygon595"
       points="290.464,192.464 297.536,199.536 298.536,198.536 291.464,191.464 " />
    <polygon
       transform="translate(-185,51)"
       id="polygon597"
       points="295,190 295,200 296,200 296,190 " />
    <circle
       id="circle921"
       r="4"
       cy="290"
       cx="4" />
    <circle
       id="circle923"
       r="4"
       cy="290"
       cx="5" />
    <circle
       id="circle925"
       r="4"
       cy="290"
       cx="6" />
    <circle
       id="circle927"
       r="4"
       cy="290"
       cx="7" />
    <circle
       id="circle929"
       r="4"
       cy="290"
       cx="8" />
    <circle
       id="circle931"
       r="4"
       cy="290"
       cx="9" />
    <circle
       id="circle933"
       r="4.1230001"
       cy="290"
       cx="10" />
    <circle
       id="circle935"
       r="4.4720001"
       cy="290"
       cx="11" />
    <circle
       id="circle937"
       r="5"
       cy="290"
       cx="12" />
    <circle
       id="circle939"
       r="5"
       cy="290"
       cx="13" />
    <circle
       id="circle941"
       r="4"
       cy="289"
       cx="14" />
    <circle
       id="circle943"
       r="4"
       cy="289"
       cx="15" />
    <circle
       id="circle945"
       r="4"
       cy="289"
       cx="16" />
    <circle
       id="circle947"
       r="4.1230001"
       cy="289"
       cx="17" />
    <circle
       id="circle949"
       r="4.1230001"
       cy="289"
       cx="18" />
    <circle
       id="circle951"
       r="4"
       cy="289"
       cx="19" />
    <circle
       id="circle953"
       r="4"
       cy="289"
       cx="20" />
    <circle
       id="circle955"
       r="4.4720001"
       cy="288"
       cx="21" />
    <circle
       id="circle957"
       r="5"
       cy="288"
       cx="22" />
    <circle
       id="circle959"
       r="4.4720001"
       cy="288"
       cx="23" />
    <circle
       id="circle961"
       r="4"
       cy="287"
       cx="23" />
    <circle
       id="circle963"
       r="4"
       cy="287"
       cx="24" />
    <circle
       id="circle965"
       r="4"
       cy="287"
       cx="25" />
    <circle
       id="circle967"
       r="4.1230001"
       cy="287"
       cx="26" />
    <circle
       id="circle969"
       r="4"
       cy="287"
       cx="27" />
    <circle
       id="circle971"
       r="4"
       cy="287"
       cx="28" />
    <circle
       id="circle973"
       r="4"
       cy="286"
       cx="29" />
    <circle
       id="circle975"
       r="4.1230001"
       cy="286"
       cx="30" />
    <circle
       id="circle977"
       r="4.1230001"
       cy="286"
       cx="31" />
    <circle
       id="circle979"
       r="4"
       cy="286"
       cx="32" />
    <circle
       id="circle981"
       r="4"
       cy="286"
       cx="33" />
    <circle
       id="circle983"
       r="4.1230001"
       cy="285"
       cx="33" />
    <circle
       id="circle985"
       r="4.4720001"
       cy="285"
       cx="34" />
    <circle
       id="circle987"
       r="4.4720001"
       cy="285"
       cx="35" />
    <circle
       id="circle989"
       r="4.1230001"
       cy="285"
       cx="36" />
    <circle
       id="circle991"
       r="4.1230001"
       cy="284"
       cx="36" />
    <circle
       id="circle993"
       r="4.4720001"
       cy="284"
       cx="37" />
    <circle
       id="circle995"
       r="4.4720001"
       cy="284"
       cx="38" />
    <circle
       id="circle997"
       r="4.1230001"
       cy="284"
       cx="39" />
    <circle
       id="circle999"
       r="4.4720001"
       cy="283"
       cx="40" />
    <circle
       id="circle1001"
       r="5"
       cy="283"
       cx="41" />
    <circle
       id="circle1003"
       r="5"
       cy="283"
       cx="42" />
    <circle
       id="circle1005"
       r="4.4720001"
       cy="282"
       cx="43" />
    <circle
       id="circle1007"
       r="5"
       cy="282"
       cx="44" />
    <circle
       id="circle1009"
       r="4.4720001"
       cy="282"
       cx="45" />
    <circle
       id="circle1011"
       r="4"
       cy="281"
       cx="45" />
    <circle
       id="circle1013"
       r="4.1230001"
       cy="281"
       cx="46" />
    <circle
       id="circle1015"
       r="4.4720001"
       cy="281"
       cx="47" />
    <circle
       id="circle1017"
       r="4.1230001"
       cy="281"
       cx="48" />
    <circle
       id="circle1019"
       r="4.4720001"
       cy="280"
       cx="49" />
    <circle
       id="circle1021"
       r="4.4720001"
       cy="280"
       cx="50" />
    <circle
       id="circle1023"
       r="4.1230001"
       cy="280"
       cx="51" />
    <circle
       id="circle1025"
       r="4.4720001"
       cy="279"
       cx="52" />
    <circle
       id="circle1027"
       r="4.1230001"
       cy="279"
       cx="53" />
    <circle
       id="circle1029"
       r="4"
       cy="279"
       cx="54" />
    <circle
       id="circle1031"
       r="4.4720001"
       cy="278"
       cx="54" />
    <circle
       id="circle1033"
       r="5"
       cy="278"
       cx="55" />
    <circle
       id="circle1035"
       r="4.4720001"
       cy="278"
       cx="56" />
    <circle
       id="circle1037"
       r="4.4720001"
       cy="277"
       cx="57" />
    <circle
       id="circle1039"
       r="5"
       cy="277"
       cx="58" />
    <circle
       id="circle1041"
       r="5"
       cy="277"
       cx="59" />
    <circle
       id="circle1043"
       r="4"
       cy="276"
       cx="59" />
    <circle
       id="circle1045"
       r="4"
       cy="276"
       cx="60" />
    <circle
       id="circle1047"
       r="4.1230001"
       cy="276"
       cx="61" />
    <circle
       id="circle1049"
       r="3.6059999"
       cy="275"
       cx="62" />
    <circle
       id="circle1051"
       r="4.243"
       cy="275"
       cx="63" />
    <circle
       id="circle1053"
       r="4.1230001"
       cy="275"
       cx="64" />
    <circle
       id="circle1055"
       r="4"
       cy="275"
       cx="65" />
    <circle
       id="circle1057"
       r="4"
       cy="274"
       cx="65" />
    <circle
       id="circle1059"
       r="4.1230001"
       cy="274"
       cx="66" />
    <circle
       id="circle1061"
       r="4.4720001"
       cy="274"
       cx="67" />
    <circle
       id="circle1063"
       r="4.243"
       cy="273"
       cx="68" />
    <circle
       id="circle1065"
       r="4.4720001"
       cy="273"
       cx="69" />
    <circle
       id="circle1067"
       r="4.4720001"
       cy="272"
       cx="70" />
    <circle
       id="circle1069"
       r="4"
       cy="271"
       cx="71" />
    <circle
       id="circle1071"
       r="4"
       cy="271"
       cx="72" />
    <circle
       id="circle1073"
       r="4.1230001"
       cy="271"
       cx="73" />
    <circle
       id="circle1075"
       r="4"
       cy="271"
       cx="74" />
    <circle
       id="circle1077"
       r="4.243"
       cy="270"
       cx="75" />
    <circle
       id="circle1079"
       r="4.4720001"
       cy="270"
       cx="76" />
    <circle
       id="circle1081"
       r="4.1230001"
       cy="270"
       cx="77" />
    <circle
       id="circle1083"
       r="5"
       cy="269"
       cx="78" />
    <circle
       id="circle1085"
       r="5"
       cy="269"
       cx="79" />
    <circle
       id="circle1087"
       r="4.4720001"
       cy="268"
       cx="79" />
    <circle
       id="circle1089"
       r="5"
       cy="268"
       cx="80" />
    <circle
       id="circle1091"
       r="4.4720001"
       cy="268"
       cx="81" />
    <circle
       id="circle1093"
       r="4.1230001"
       cy="267"
       cx="81" />
    <circle
       id="circle1095"
       r="4.4720001"
       cy="267"
       cx="82" />
    <circle
       id="circle1097"
       r="4.4720001"
       cy="267"
       cx="83" />
    <circle
       id="circle1099"
       r="4.4720001"
       cy="266"
       cx="84" />
    <circle
       id="circle1101"
       r="4.4720001"
       cy="266"
       cx="85" />
    <circle
       id="circle1103"
       r="5"
       cy="265"
       cx="86" />
    <circle
       id="circle1105"
       r="5"
       cy="264"
       cx="87" />
    <circle
       id="circle1107"
       r="4.4720001"
       cy="264"
       cx="88" />
    <circle
       id="circle1109"
       r="4.1230001"
       cy="263"
       cx="88" />
    <circle
       id="circle1111"
       r="4.4720001"
       cy="263"
       cx="89" />
    <circle
       id="circle1113"
       r="4.4720001"
       cy="263"
       cx="90" />
    <circle
       id="circle1115"
       r="5"
       cy="262"
       cx="91" />
    <circle
       id="circle1117"
       r="4.4720001"
       cy="261"
       cx="92" />
    <circle
       id="circle1119"
       r="4.243"
       cy="260"
       cx="93" />
    <circle
       id="circle1121"
       r="4.4720001"
       cy="260"
       cx="94" />
    <circle
       id="circle1123"
       r="4.1230001"
       cy="260"
       cx="95" />
    <circle
       id="circle1125"
       r="5"
       cy="259"
       cx="95" />
    <circle
       id="circle1127"
       r="5"
       cy="259"
       cx="96" />
    <circle
       id="circle1129"
       r="4.4720001"
       cy="258"
       cx="96" />
    <circle
       id="circle1131"
       r="5"
       cy="258"
       cx="97" />
    <circle
       id="circle1133"
       r="4.4720001"
       cy="258"
       cx="98" />
    <circle
       id="circle1135"
       r="5"
       cy="257"
       cx="98" />
    <circle
       id="circle1137"
       r="5"
       cy="257"
       cx="99" />
    <circle
       id="circle1139"
       r="4.4720001"
       cy="256"
       cx="99" />
    <circle
       id="circle1141"
       r="5"
       cy="256"
       cx="100" />
    <circle
       id="circle1143"
       r="5"
       cy="255"
       cx="101" />
    <circle
       id="circle1145"
       r="5"
       cy="254"
       cx="102" />
    <circle
       id="circle1147"
       r="5"
       cy="253"
       cx="103" />
    <circle
       id="circle1149"
       r="5"
       cy="252"
       cx="104" />
    <circle
       id="circle1151"
       r="5"
       cy="251"
       cx="105" />
    <circle
       id="circle1153"
       r="5.3850002"
       cy="250"
       cx="106" />
    <circle
       id="circle1155"
       r="5"
       cy="249"
       cx="107" />
    <circle
       id="circle1157"
       r="5"
       cy="249"
       cx="108" />
    <circle
       id="circle1159"
       r="5"
       cy="248"
       cx="108" />
    <circle
       id="circle1161"
       r="5"
       cy="248"
       cx="109" />
    <circle
       id="circle1163"
       r="5"
       cy="247"
       cx="109" />
    <circle
       id="circle1165"
       r="5"
       cy="246"
       cx="110" />
    <circle
       id="circle1167"
       r="5"
       cy="246"
       cx="111" />
    <polyline
       transform="translate(-185,51)"
       id="c2"
       points="189,239 190,239 191,239 192,239 193,239 194,239 195,239 196,239 197,239 198,239 199,238 200,238 201,238 202,238 203,238 204,238 205,238 206,237 207,237 208,237 208,236 209,236 210,236 211,236 212,236 213,236 214,235 215,235 216,235 217,235 218,235 218,234 219,234 220,234 221,234 221,233 222,233 223,233 224,233 225,232 226,232 227,232 228,231 229,231 230,231 230,230 231,230 232,230 233,230 234,229 235,229 236,229 237,228 238,228 239,228 239,227 240,227 241,227 242,226 243,226 244,226 244,225 245,225 246,225 247,224 248,224 249,224 250,224 250,223 251,223 252,223 253,222 254,222 255,221 256,220 257,220 258,220 259,220 260,219 261,219 262,219 263,218 264,218 264,217 265,217 266,217 266,216 267,216 268,216 269,215 270,215 271,214 272,213 273,213 273,212 274,212 275,212 276,211 277,210 278,209 279,209 280,209 280,208 281,208 281,207 282,207 283,207 283,206 284,206 284,205 285,205 286,204 287,203 288,202 289,201 290,200 291,199 292,198 293,198 293,197 294,197 294,196 295,195 296,195"
       style="fill:none;stroke:#ffffff;stroke-width:0.5;marker-start:url(#dot);marker-mid:url(#dot);marker-end:url(#dot)" />
  </g>
</svg>
